<svg width="216" height="27" viewBox="0 0 216 27" fill="none" xmlns="http://www.w3.org/2000/svg">
<path d="M25.832 23.6973C25.832 24.0254 25.7734 24.3301 25.6562 24.6113C25.5391 24.8926 25.375 25.1387 25.1641 25.3496C24.9531 25.5488 24.707 25.707 24.4258 25.8242C24.1445 25.9414 23.8457 26 23.5293 26H13.2285C12.2559 26 11.2715 25.8945 10.2754 25.6836C9.2793 25.4727 8.3125 25.1504 7.375 24.7168C6.44922 24.2715 5.57617 23.709 4.75586 23.0293C3.93555 22.3496 3.21484 21.5469 2.59375 20.6211C1.98438 19.6836 1.50391 18.6172 1.15234 17.4219C0.800781 16.2148 0.625 14.873 0.625 13.3965V0.792969H5.19531V13.3965C5.19531 14.6855 5.37109 15.7754 5.72266 16.666C6.08594 17.5566 6.54297 18.3008 7.09375 18.8984C7.64453 19.4961 8.24805 19.9648 8.9043 20.3047C9.56055 20.6445 10.1816 20.8965 10.7676 21.0605C11.3652 21.2246 11.8867 21.3301 12.332 21.377C12.7891 21.4121 13.0879 21.4297 13.2285 21.4297H21.2617V0.792969H25.832V23.6973ZM56.3828 0.792969L44.4473 25.1035C44.2598 25.4785 43.9785 25.7773 43.6035 26C43.2402 26.2344 42.8359 26.3516 42.3906 26.3516C41.957 26.3516 41.5527 26.2344 41.1777 26C40.8145 25.7773 40.5332 25.4785 40.334 25.1035L28.416 0.792969H33.5312L42.3906 18.9512L51.2852 0.792969H56.3828ZM99.5195 26H94.9141V10.9883L86.8105 25.2441C86.6113 25.6074 86.3301 25.8828 85.9668 26.0703C85.6152 26.2578 85.2344 26.3516 84.8242 26.3516C84.4258 26.3516 84.0508 26.2578 83.6992 26.0703C83.3594 25.8828 83.0898 25.6074 82.8906 25.2441L74.752 10.9883V26H70.1816V2.74414C70.1816 2.2168 70.334 1.74805 70.6387 1.33789C70.9551 0.927734 71.3652 0.652344 71.8691 0.511719C72.1152 0.453125 72.3613 0.435547 72.6074 0.458984C72.8535 0.470703 73.0879 0.523438 73.3105 0.617188C73.5449 0.699219 73.7559 0.822266 73.9434 0.986328C74.1309 1.13867 74.2891 1.32617 74.418 1.54883L84.8242 19.6367L95.2305 1.54883C95.5 1.10352 95.8691 0.787109 96.3379 0.599609C96.8184 0.412109 97.3164 0.382813 97.832 0.511719C98.3242 0.652344 98.7285 0.927734 99.0449 1.33789C99.3613 1.74805 99.5195 2.2168 99.5195 2.74414V26ZM131.301 15.8047C131.301 17.3398 131.037 18.752 130.51 20.041C129.982 21.3301 129.25 22.4434 128.312 23.3809C127.375 24.3184 126.262 25.0508 124.973 25.5781C123.695 26.0938 122.301 26.3516 120.789 26.3516H114.602C113.09 26.3516 111.689 26.0938 110.4 25.5781C109.111 25.0508 107.998 24.3184 107.061 23.3809C106.123 22.4434 105.385 21.3301 104.846 20.041C104.318 18.752 104.055 17.3398 104.055 15.8047V10.9883C104.055 9.46484 104.318 8.05859 104.846 6.76953C105.385 5.46875 106.123 4.35547 107.061 3.42969C107.998 2.49219 109.111 1.75977 110.4 1.23242C111.689 0.705078 113.09 0.441406 114.602 0.441406H120.789C122.301 0.441406 123.695 0.705078 124.973 1.23242C126.262 1.75977 127.375 2.49219 128.312 3.42969C129.25 4.35547 129.982 5.46875 130.51 6.76953C131.037 8.05859 131.301 9.46484 131.301 10.9883V15.8047ZM126.73 10.9883C126.73 10.0859 126.584 9.27148 126.291 8.54492C126.01 7.80664 125.605 7.17969 125.078 6.66406C124.562 6.13672 123.936 5.73242 123.197 5.45117C122.471 5.1582 121.668 5.01172 120.789 5.01172H114.602C113.711 5.01172 112.896 5.1582 112.158 5.45117C111.432 5.73242 110.805 6.13672 110.277 6.66406C109.75 7.17969 109.34 7.80664 109.047 8.54492C108.766 9.27148 108.625 10.0859 108.625 10.9883V15.8047C108.625 16.707 108.766 17.5273 109.047 18.2656C109.34 18.9922 109.75 19.6191 110.277 20.1465C110.805 20.6621 111.432 21.0664 112.158 21.3594C112.896 21.6406 113.711 21.7812 114.602 21.7812H120.754C121.645 21.7812 122.453 21.6406 123.18 21.3594C123.918 21.0664 124.551 20.6621 125.078 20.1465C125.605 19.6191 126.01 18.9922 126.291 18.2656C126.584 17.5273 126.73 16.707 126.73 15.8047V10.9883ZM160.973 15.4531C160.973 16.9883 160.703 18.4004 160.164 19.6895C159.637 20.9785 158.904 22.0918 157.967 23.0293C157.029 23.9551 155.916 24.6816 154.627 25.209C153.338 25.7363 151.938 26 150.426 26H138.086C137.758 26 137.453 25.9414 137.172 25.8242C136.891 25.707 136.645 25.5488 136.434 25.3496C136.234 25.1387 136.076 24.8926 135.959 24.6113C135.842 24.3301 135.783 24.0254 135.783 23.6973V3.0957C135.783 2.7793 135.842 2.48047 135.959 2.19922C136.076 1.91797 136.234 1.67188 136.434 1.46094C136.645 1.25 136.891 1.08594 137.172 0.96875C137.453 0.851562 137.758 0.792969 138.086 0.792969H150.426C151.938 0.792969 153.338 1.05664 154.627 1.58398C155.916 2.11133 157.029 2.84375 157.967 3.78125C158.904 4.70703 159.637 5.82031 160.164 7.12109C160.703 8.41016 160.973 9.81641 160.973 11.3398V15.4531ZM156.402 11.3398C156.402 10.4492 156.256 9.63477 155.963 8.89648C155.682 8.1582 155.277 7.53125 154.75 7.01562C154.223 6.48828 153.59 6.08398 152.852 5.80273C152.125 5.50977 151.316 5.36328 150.426 5.36328H140.354V21.4297H150.426C151.316 21.4297 152.125 21.2891 152.852 21.0078C153.59 20.7148 154.223 20.3105 154.75 19.7949C155.277 19.2676 155.682 18.6406 155.963 17.9141C156.256 17.1758 156.402 16.3555 156.402 15.4531V11.3398ZM186.18 15.6992H171.748V11.0938H186.18V15.6992ZM188.236 26H171.748C171.115 26 170.424 25.8887 169.674 25.666C168.924 25.4434 168.227 25.0801 167.582 24.5762C166.949 24.0605 166.416 23.3984 165.982 22.5898C165.561 21.7695 165.35 20.7676 165.35 19.584V3.0957C165.35 2.7793 165.408 2.48047 165.525 2.19922C165.643 1.91797 165.801 1.67188 166 1.46094C166.211 1.25 166.457 1.08594 166.738 0.96875C167.02 0.851562 167.324 0.792969 167.652 0.792969H188.236V5.36328H169.92V19.584C169.92 20.1816 170.078 20.6387 170.395 20.9551C170.711 21.2715 171.174 21.4297 171.783 21.4297H188.236V26ZM215.816 26H194.969C194.641 26 194.336 25.9414 194.055 25.8242C193.773 25.707 193.527 25.5488 193.316 25.3496C193.117 25.1387 192.959 24.8926 192.842 24.6113C192.725 24.3301 192.666 24.0254 192.666 23.6973V0.792969H197.236V21.4297H215.816V26Z" fill="white"/>
</svg>
